<svg xmlns="http://www.w3.org/2000/svg" viewBox="0 0 128 128" role="img" aria-labelledby="title">
  <title>Pagewise logo</title>
  <rect width="128" height="128" rx="30" fill="#1d1d1b"/>
  <path d="M38 30h35l17 17v40a11 11 0 0 1-11 11H38a11 11 0 0 1-11-11V41a11 11 0 0 1 11-11Z" fill="#fff"/>
  <path d="M73 30v17h17" fill="none" stroke="#1d1d1b" stroke-linejoin="round" stroke-width="7"/>
  <path d="M43 59h29M43 72h20" fill="none" stroke="#1d1d1b" stroke-linecap="round" stroke-width="7"/>
  <path d="M74 71.5c0-7.5 6.2-13.5 13.8-13.5s13.7 6 13.7 13.5S95.3 85 87.8 85c-2 0-3.9-.4-5.6-1.2l-8.9 3.2 2.6-8A13 13 0 0 1 74 71.5Z" fill="#7DDC9A" stroke="#1d1d1b" stroke-linejoin="round" stroke-width="4.5"/>
  <path d="M82 71.5h.1M88 71.5h.1M94 71.5h.1" fill="none" stroke="#1d1d1b" stroke-linecap="round" stroke-width="4.5"/>
</svg>
